# xmcd
#
# Track frame offsets:
#	393
#	17301
#	34068
#	44576
#	61169
#	83544
#	101112
#	130003
#	153524
#	174136
#	195923
#
# Disc length: 2913 seconds
#
# Revision: 0
# Processed by: cddbd v1.5.2PL0 Copyright (c) Steve Scherf et al.
# Submitted via: dBpowerAMP V4.0
#
DISCID=7a0b5c0b
DTITLE=Radioroad West - live unplugged
DYEAR=1900
DGENRE=
TTITLE0=I fell in love with the curry house owner's daughter
TTITLE1=Give us a chance
TTITLE2=The daily rumours
TTITLE3=Your face
TTITLE4=Marco island, FL
TTITLE5=Somewhere, somehow
TTITLE6=Sort it out
TTITLE7=Alright
TTITLE8=Maybe (feat. Garland Hatten)
TTITLE9=Goodbye
TTITLE10=Messy Thursday
EXTD=
EXTT0=
EXTT1=
EXTT2=
EXTT3=
EXTT4=
EXTT5=
EXTT6=
EXTT7=
EXTT8=
EXTT9=
EXTT10=
PLAYORDER=
